<mxfile host="app.diagrams.net" agent="Mozilla/5.0 (Windows NT 10.0; Win64; x64) AppleWebKit/537.36 (KHTML, like Gecko) Chrome/136.0.0.0 Safari/537.36" version="26.2.14">
  <diagram name="PÃ¡gina-1" id="2McxQtOI3PiDvZUAISbN">
    <mxGraphModel dx="2889" dy="1085" grid="1" gridSize="8" guides="1" tooltips="1" connect="1" arrows="1" fold="1" page="1" pageScale="1" pageWidth="1169" pageHeight="827" math="0" shadow="0">
      <root>
        <mxCell id="0" />
        <mxCell id="1" parent="0" />
        <mxCell id="vCYi2XaUvvBDvqvVBY6Y-107" style="edgeStyle=orthogonalEdgeStyle;rounded=0;orthogonalLoop=1;jettySize=auto;html=1;entryX=0.5;entryY=0;entryDx=0;entryDy=0;" edge="1" parent="1" source="vCYi2XaUvvBDvqvVBY6Y-110" target="vCYi2XaUvvBDvqvVBY6Y-113">
          <mxGeometry relative="1" as="geometry" />
        </mxCell>
        <mxCell id="vCYi2XaUvvBDvqvVBY6Y-108" style="edgeStyle=orthogonalEdgeStyle;rounded=0;orthogonalLoop=1;jettySize=auto;html=1;entryX=0.5;entryY=0;entryDx=0;entryDy=0;" edge="1" parent="1" source="vCYi2XaUvvBDvqvVBY6Y-110" target="vCYi2XaUvvBDvqvVBY6Y-115">
          <mxGeometry relative="1" as="geometry" />
        </mxCell>
        <mxCell id="vCYi2XaUvvBDvqvVBY6Y-109" style="edgeStyle=orthogonalEdgeStyle;rounded=0;orthogonalLoop=1;jettySize=auto;html=1;entryX=0.5;entryY=0;entryDx=0;entryDy=0;" edge="1" parent="1" source="vCYi2XaUvvBDvqvVBY6Y-110" target="vCYi2XaUvvBDvqvVBY6Y-112">
          <mxGeometry relative="1" as="geometry" />
        </mxCell>
        <mxCell id="vCYi2XaUvvBDvqvVBY6Y-110" value="&lt;b&gt;&lt;font style=&quot;font-size: 16px;&quot;&gt;MYFIRSAPII2&lt;/font&gt;&lt;/b&gt;" style="ellipse;whiteSpace=wrap;html=1;fillColor=#CCFFFF;strokeColor=#10739e;" vertex="1" parent="1">
          <mxGeometry x="312" y="48" width="220" height="70" as="geometry" />
        </mxCell>
        <mxCell id="vCYi2XaUvvBDvqvVBY6Y-111" style="edgeStyle=orthogonalEdgeStyle;rounded=0;orthogonalLoop=1;jettySize=auto;html=1;exitX=0.5;exitY=1;exitDx=0;exitDy=0;entryX=0.5;entryY=0;entryDx=0;entryDy=0;" edge="1" parent="1" source="vCYi2XaUvvBDvqvVBY6Y-112" target="vCYi2XaUvvBDvqvVBY6Y-141">
          <mxGeometry relative="1" as="geometry" />
        </mxCell>
        <mxCell id="vCYi2XaUvvBDvqvVBY6Y-112" value="&lt;font style=&quot;font-size: 14px;&quot;&gt;Controller&lt;/font&gt;" style="rounded=0;whiteSpace=wrap;html=1;" vertex="1" parent="1">
          <mxGeometry x="-122" y="148" width="130" height="50" as="geometry" />
        </mxCell>
        <mxCell id="vCYi2XaUvvBDvqvVBY6Y-113" value="&lt;font style=&quot;font-size: 14px;&quot;&gt;Service&lt;/font&gt;" style="rounded=0;whiteSpace=wrap;html=1;" vertex="1" parent="1">
          <mxGeometry x="357" y="158" width="130" height="50" as="geometry" />
        </mxCell>
        <mxCell id="vCYi2XaUvvBDvqvVBY6Y-114" style="edgeStyle=orthogonalEdgeStyle;rounded=0;orthogonalLoop=1;jettySize=auto;html=1;exitX=1;exitY=0.5;exitDx=0;exitDy=0;entryX=0.5;entryY=0;entryDx=0;entryDy=0;strokeColor=#0E0E0E;fillColor=#0E0E0E;" edge="1" parent="1" source="vCYi2XaUvvBDvqvVBY6Y-115" target="vCYi2XaUvvBDvqvVBY6Y-160">
          <mxGeometry relative="1" as="geometry" />
        </mxCell>
        <mxCell id="vCYi2XaUvvBDvqvVBY6Y-115" value="&lt;font style=&quot;font-size: 14px;&quot;&gt;Model&lt;/font&gt;" style="rounded=0;whiteSpace=wrap;html=1;" vertex="1" parent="1">
          <mxGeometry x="958" y="138" width="130" height="50" as="geometry" />
        </mxCell>
        <mxCell id="vCYi2XaUvvBDvqvVBY6Y-116" style="edgeStyle=orthogonalEdgeStyle;rounded=0;orthogonalLoop=1;jettySize=auto;html=1;exitX=1;exitY=0;exitDx=0;exitDy=0;entryX=1;entryY=0.5;entryDx=0;entryDy=0;" edge="1" parent="1" source="vCYi2XaUvvBDvqvVBY6Y-118">
          <mxGeometry relative="1" as="geometry">
            <mxPoint x="1416" y="640" as="targetPoint" />
            <Array as="points">
              <mxPoint x="1396" y="350" />
              <mxPoint x="1436" y="350" />
              <mxPoint x="1436" y="640" />
            </Array>
          </mxGeometry>
        </mxCell>
        <mxCell id="vCYi2XaUvvBDvqvVBY6Y-117" style="edgeStyle=orthogonalEdgeStyle;rounded=0;orthogonalLoop=1;jettySize=auto;html=1;exitX=0;exitY=0;exitDx=0;exitDy=0;entryX=1;entryY=0.5;entryDx=0;entryDy=0;" edge="1" parent="1" source="vCYi2XaUvvBDvqvVBY6Y-118" target="vCYi2XaUvvBDvqvVBY6Y-166">
          <mxGeometry relative="1" as="geometry">
            <Array as="points">
              <mxPoint x="1226" y="350" />
              <mxPoint x="1197" y="350" />
              <mxPoint x="1197" y="430" />
            </Array>
          </mxGeometry>
        </mxCell>
        <mxCell id="vCYi2XaUvvBDvqvVBY6Y-118" value="Location" style="swimlane;fontStyle=0;childLayout=stackLayout;horizontal=1;startSize=30;horizontalStack=0;resizeParent=1;resizeParentMax=0;resizeLast=0;collapsible=1;marginBottom=0;whiteSpace=wrap;html=1;" vertex="1" parent="1">
          <mxGeometry x="1226" y="330" width="170" height="170" as="geometry">
            <mxRectangle x="635" y="250" width="90" height="30" as="alternateBounds" />
          </mxGeometry>
        </mxCell>
        <mxCell id="vCYi2XaUvvBDvqvVBY6Y-119" value="- code: String&lt;div&gt;- description : String&lt;/div&gt;" style="text;strokeColor=none;fillColor=none;align=left;verticalAlign=middle;spacingLeft=4;spacingRight=4;overflow=hidden;points=[[0,0.5],[1,0.5]];portConstraint=eastwest;rotatable=0;whiteSpace=wrap;html=1;" vertex="1" parent="vCYi2XaUvvBDvqvVBY6Y-118">
          <mxGeometry y="30" width="170" height="30" as="geometry" />
        </mxCell>
        <mxCell id="vCYi2XaUvvBDvqvVBY6Y-120" value="" style="endArrow=none;html=1;rounded=0;exitX=0.963;exitY=0;exitDx=0;exitDy=0;exitPerimeter=0;entryX=0.015;entryY=0;entryDx=0;entryDy=0;entryPerimeter=0;" edge="1" parent="vCYi2XaUvvBDvqvVBY6Y-118" source="vCYi2XaUvvBDvqvVBY6Y-122" target="vCYi2XaUvvBDvqvVBY6Y-122">
          <mxGeometry width="50" height="50" relative="1" as="geometry">
            <mxPoint x="90" y="60" as="sourcePoint" />
            <mxPoint x="10" y="60" as="targetPoint" />
          </mxGeometry>
        </mxCell>
        <mxCell id="vCYi2XaUvvBDvqvVBY6Y-121" value="&lt;br&gt;&lt;div&gt;&lt;br&gt;&lt;/div&gt;&lt;div&gt;&lt;br&gt;&lt;/div&gt;&lt;div&gt;&lt;br&gt;&lt;/div&gt;" style="text;strokeColor=none;fillColor=none;align=left;verticalAlign=middle;spacingLeft=4;spacingRight=4;overflow=hidden;points=[[0,0.5],[1,0.5]];portConstraint=eastwest;rotatable=0;whiteSpace=wrap;html=1;" vertex="1" parent="vCYi2XaUvvBDvqvVBY6Y-118">
          <mxGeometry y="60" width="170" height="30" as="geometry" />
        </mxCell>
        <mxCell id="vCYi2XaUvvBDvqvVBY6Y-122" value="+ Location (code: String, description: String)&lt;div&gt;&lt;br&gt;&lt;/div&gt;&lt;div&gt;//gettes and setters&lt;/div&gt;" style="text;strokeColor=none;fillColor=none;align=left;verticalAlign=middle;spacingLeft=4;spacingRight=4;overflow=hidden;points=[[0,0.5],[1,0.5]];portConstraint=eastwest;rotatable=0;whiteSpace=wrap;html=1;" vertex="1" parent="vCYi2XaUvvBDvqvVBY6Y-118">
          <mxGeometry y="90" width="170" height="80" as="geometry" />
        </mxCell>
        <mxCell id="vCYi2XaUvvBDvqvVBY6Y-123" value="Sale" style="swimlane;fontStyle=0;childLayout=stackLayout;horizontal=1;startSize=30;horizontalStack=0;resizeParent=1;resizeParentMax=0;resizeLast=0;collapsible=1;marginBottom=0;whiteSpace=wrap;html=1;" vertex="1" parent="1">
          <mxGeometry x="988" y="530" width="180" height="120" as="geometry" />
        </mxCell>
        <mxCell id="vCYi2XaUvvBDvqvVBY6Y-124" value="- store: Store&lt;br&gt;&lt;div&gt;- seller: Seller&lt;/div&gt;&lt;div&gt;- dateSale: Locale&lt;/div&gt;&lt;div&gt;-guantity: int&lt;/div&gt;&lt;div&gt;- products: List&lt;/div&gt;" style="text;strokeColor=none;fillColor=none;align=left;verticalAlign=middle;spacingLeft=4;spacingRight=4;overflow=hidden;points=[[0,0.5],[1,0.5]];portConstraint=eastwest;rotatable=0;whiteSpace=wrap;html=1;" vertex="1" parent="vCYi2XaUvvBDvqvVBY6Y-123">
          <mxGeometry y="30" width="180" height="90" as="geometry" />
        </mxCell>
        <mxCell id="vCYi2XaUvvBDvqvVBY6Y-129" value="Seller" style="swimlane;fontStyle=0;childLayout=stackLayout;horizontal=1;startSize=30;horizontalStack=0;resizeParent=1;resizeParentMax=0;resizeLast=0;collapsible=1;marginBottom=0;whiteSpace=wrap;html=1;" vertex="1" parent="1">
          <mxGeometry x="1228" y="530" width="170" height="130" as="geometry" />
        </mxCell>
        <mxCell id="vCYi2XaUvvBDvqvVBY6Y-130" value="&lt;div&gt;&lt;span style=&quot;background-color: transparent; color: light-dark(rgb(0, 0, 0), rgb(255, 255, 255));&quot;&gt;- identification : String&lt;/span&gt;&lt;/div&gt;&lt;div&gt;&lt;span style=&quot;background-color: transparent; color: light-dark(rgb(0, 0, 0), rgb(255, 255, 255));&quot;&gt;- typeDoc: TypeDoc&lt;/span&gt;&lt;/div&gt;&lt;div&gt;&lt;span style=&quot;background-color: transparent; color: light-dark(rgb(0, 0, 0), rgb(255, 255, 255));&quot;&gt;- name: String&lt;/span&gt;&lt;/div&gt;&lt;div&gt;&lt;span style=&quot;background-color: transparent; color: light-dark(rgb(0, 0, 0), rgb(255, 255, 255));&quot;&gt;- lastName: String&lt;/span&gt;&lt;/div&gt;&lt;div&gt;&lt;span style=&quot;background-color: transparent; color: light-dark(rgb(0, 0, 0), rgb(255, 255, 255));&quot;&gt;- age: byte&amp;nbsp;&lt;/span&gt;&lt;/div&gt;&lt;div&gt;-&amp;nbsp;&lt;span style=&quot;background-color: transparent; color: light-dark(rgb(0, 0, 0), rgb(255, 255, 255));&quot;&gt;city&lt;/span&gt;&lt;span style=&quot;background-color: transparent; color: light-dark(rgb(0, 0, 0), rgb(255, 255, 255));&quot;&gt;: Location&lt;/span&gt;&lt;/div&gt;" style="text;strokeColor=none;fillColor=none;align=left;verticalAlign=middle;spacingLeft=4;spacingRight=4;overflow=hidden;points=[[0,0.5],[1,0.5]];portConstraint=eastwest;rotatable=0;whiteSpace=wrap;html=1;" vertex="1" parent="vCYi2XaUvvBDvqvVBY6Y-129">
          <mxGeometry y="30" width="170" height="100" as="geometry" />
        </mxCell>
        <mxCell id="vCYi2XaUvvBDvqvVBY6Y-135" value="Store" style="swimlane;fontStyle=0;childLayout=stackLayout;horizontal=1;startSize=30;horizontalStack=0;resizeParent=1;resizeParentMax=0;resizeLast=0;collapsible=1;marginBottom=0;whiteSpace=wrap;html=1;" vertex="1" parent="1">
          <mxGeometry x="988" y="360" width="160" height="100" as="geometry" />
        </mxCell>
        <mxCell id="vCYi2XaUvvBDvqvVBY6Y-136" value="- code: String&lt;div&gt;- name: String&lt;/div&gt;&lt;div&gt;- address: String&lt;/div&gt;&lt;div&gt;- city: Location&amp;nbsp;&lt;/div&gt;" style="text;strokeColor=none;fillColor=none;align=left;verticalAlign=middle;spacingLeft=4;spacingRight=4;overflow=hidden;points=[[0,0.5],[1,0.5]];portConstraint=eastwest;rotatable=0;whiteSpace=wrap;html=1;" vertex="1" parent="vCYi2XaUvvBDvqvVBY6Y-135">
          <mxGeometry y="30" width="160" height="70" as="geometry" />
        </mxCell>
        <mxCell id="vCYi2XaUvvBDvqvVBY6Y-141" value="LocationController" style="swimlane;fontStyle=0;childLayout=stackLayout;horizontal=1;startSize=30;horizontalStack=0;resizeParent=1;resizeParentMax=0;resizeLast=0;collapsible=1;marginBottom=0;whiteSpace=wrap;html=1;" vertex="1" parent="1">
          <mxGeometry x="-152" y="288" width="190" height="170" as="geometry">
            <mxRectangle x="635" y="250" width="90" height="30" as="alternateBounds" />
          </mxGeometry>
        </mxCell>
        <mxCell id="vCYi2XaUvvBDvqvVBY6Y-142" value="- locationservice: LocationService" style="text;strokeColor=none;fillColor=none;align=left;verticalAlign=middle;spacingLeft=4;spacingRight=4;overflow=hidden;points=[[0,0.5],[1,0.5]];portConstraint=eastwest;rotatable=0;whiteSpace=wrap;html=1;" vertex="1" parent="vCYi2XaUvvBDvqvVBY6Y-141">
          <mxGeometry y="30" width="190" height="30" as="geometry" />
        </mxCell>
        <mxCell id="vCYi2XaUvvBDvqvVBY6Y-143" value="&lt;br&gt;&lt;div&gt;&lt;br&gt;&lt;/div&gt;&lt;div&gt;&lt;br&gt;&lt;/div&gt;&lt;div&gt;&lt;br&gt;&lt;/div&gt;" style="text;strokeColor=none;fillColor=none;align=left;verticalAlign=middle;spacingLeft=4;spacingRight=4;overflow=hidden;points=[[0,0.5],[1,0.5]];portConstraint=eastwest;rotatable=0;whiteSpace=wrap;html=1;" vertex="1" parent="vCYi2XaUvvBDvqvVBY6Y-141">
          <mxGeometry y="60" width="190" height="30" as="geometry" />
        </mxCell>
        <mxCell id="vCYi2XaUvvBDvqvVBY6Y-144" value="" style="endArrow=none;html=1;rounded=0;exitX=0.963;exitY=0;exitDx=0;exitDy=0;exitPerimeter=0;entryX=0.015;entryY=0;entryDx=0;entryDy=0;entryPerimeter=0;" edge="1" parent="vCYi2XaUvvBDvqvVBY6Y-141" source="vCYi2XaUvvBDvqvVBY6Y-145" target="vCYi2XaUvvBDvqvVBY6Y-145">
          <mxGeometry width="50" height="50" relative="1" as="geometry">
            <mxPoint x="90" y="60" as="sourcePoint" />
            <mxPoint x="10" y="60" as="targetPoint" />
          </mxGeometry>
        </mxCell>
        <mxCell id="vCYi2XaUvvBDvqvVBY6Y-145" value="+ getLocations(): List&lt;div&gt;&amp;nbsp;&lt;div&gt;&lt;br&gt;&lt;/div&gt;&lt;/div&gt;" style="text;strokeColor=none;fillColor=none;align=left;verticalAlign=middle;spacingLeft=4;spacingRight=4;overflow=hidden;points=[[0,0.5],[1,0.5]];portConstraint=eastwest;rotatable=0;whiteSpace=wrap;html=1;" vertex="1" parent="vCYi2XaUvvBDvqvVBY6Y-141">
          <mxGeometry y="90" width="190" height="80" as="geometry" />
        </mxCell>
        <mxCell id="vCYi2XaUvvBDvqvVBY6Y-146" value="LocationService" style="swimlane;fontStyle=0;childLayout=stackLayout;horizontal=1;startSize=30;horizontalStack=0;resizeParent=1;resizeParentMax=0;resizeLast=0;collapsible=1;marginBottom=0;whiteSpace=wrap;html=1;" vertex="1" parent="1">
          <mxGeometry x="312" y="260" width="230" height="180" as="geometry">
            <mxRectangle x="635" y="250" width="90" height="30" as="alternateBounds" />
          </mxGeometry>
        </mxCell>
        <mxCell id="vCYi2XaUvvBDvqvVBY6Y-147" value="&lt;div&gt;locations: List&amp;lt;Location&lt;/div&gt;&lt;div&gt;locationsFilename: String&lt;/div&gt;" style="text;strokeColor=none;fillColor=none;align=left;verticalAlign=middle;spacingLeft=4;spacingRight=4;overflow=hidden;points=[[0,0.5],[1,0.5]];portConstraint=eastwest;rotatable=0;whiteSpace=wrap;html=1;" vertex="1" parent="vCYi2XaUvvBDvqvVBY6Y-146">
          <mxGeometry y="30" width="230" height="30" as="geometry" />
        </mxCell>
        <mxCell id="vCYi2XaUvvBDvqvVBY6Y-148" value="" style="endArrow=none;html=1;rounded=0;exitX=0.963;exitY=0;exitDx=0;exitDy=0;exitPerimeter=0;entryX=0.015;entryY=0;entryDx=0;entryDy=0;entryPerimeter=0;" edge="1" parent="vCYi2XaUvvBDvqvVBY6Y-146" source="vCYi2XaUvvBDvqvVBY6Y-149" target="vCYi2XaUvvBDvqvVBY6Y-149">
          <mxGeometry width="50" height="50" relative="1" as="geometry">
            <mxPoint x="90" y="60" as="sourcePoint" />
            <mxPoint x="10" y="60" as="targetPoint" />
          </mxGeometry>
        </mxCell>
        <mxCell id="vCYi2XaUvvBDvqvVBY6Y-149" value="+ readLocationFromcsv() : List&lt;div&gt;getLocationByCode(code:String):Location&lt;/div&gt;&lt;div&gt;getStates(): List&amp;lt;Location&lt;/div&gt;&lt;div&gt;getLocationByName(name:String: Location)&lt;/div&gt;&lt;div&gt;getLocationByInitialLetter(I&lt;span style=&quot;background-color: transparent; color: light-dark(rgb(0, 0, 0), rgb(255, 255, 255));&quot;&gt;nitialLette: String): List&lt;/span&gt;&lt;/div&gt;" style="text;strokeColor=none;fillColor=none;align=left;verticalAlign=middle;spacingLeft=4;spacingRight=4;overflow=hidden;points=[[0,0.5],[1,0.5]];portConstraint=eastwest;rotatable=0;whiteSpace=wrap;html=1;" vertex="1" parent="vCYi2XaUvvBDvqvVBY6Y-146">
          <mxGeometry y="60" width="230" height="120" as="geometry" />
        </mxCell>
        <mxCell id="vCYi2XaUvvBDvqvVBY6Y-150" style="edgeStyle=orthogonalEdgeStyle;rounded=0;orthogonalLoop=1;jettySize=auto;html=1;exitX=0.5;exitY=1;exitDx=0;exitDy=0;" edge="1" parent="1" source="vCYi2XaUvvBDvqvVBY6Y-113">
          <mxGeometry relative="1" as="geometry">
            <mxPoint x="422" y="258" as="targetPoint" />
          </mxGeometry>
        </mxCell>
        <mxCell id="vCYi2XaUvvBDvqvVBY6Y-151" value="" style="rhombus;whiteSpace=wrap;html=1;fillColor=#0E0E0E;" vertex="1" parent="1">
          <mxGeometry x="-23" y="268" width="20" height="20" as="geometry" />
        </mxCell>
        <mxCell id="vCYi2XaUvvBDvqvVBY6Y-152" value="" style="edgeStyle=entityRelationEdgeStyle;fontSize=12;html=1;endArrow=ERmany;rounded=0;entryX=0.029;entryY=0.118;entryDx=0;entryDy=0;entryPerimeter=0;" edge="1" parent="1">
          <mxGeometry width="100" height="100" relative="1" as="geometry">
            <mxPoint x="728" y="340" as="sourcePoint" />
            <mxPoint x="1226" y="340.06000000000006" as="targetPoint" />
            <Array as="points">
              <mxPoint x="978.07" y="350" />
              <mxPoint x="988.07" y="360" />
              <mxPoint x="1021.07" y="340" />
              <mxPoint x="1008.07" y="340" />
              <mxPoint x="1028.0700000000002" y="360" />
            </Array>
          </mxGeometry>
        </mxCell>
        <mxCell id="vCYi2XaUvvBDvqvVBY6Y-153" value="Parameter" style="swimlane;fontStyle=0;childLayout=stackLayout;horizontal=1;startSize=30;horizontalStack=0;resizeParent=1;resizeParentMax=0;resizeLast=0;collapsible=1;marginBottom=0;whiteSpace=wrap;html=1;" vertex="1" parent="1">
          <mxGeometry x="1468" y="208" width="180" height="80" as="geometry" />
        </mxCell>
        <mxCell id="vCYi2XaUvvBDvqvVBY6Y-154" value="- code: String&lt;div&gt;- description: String&lt;/div&gt;" style="text;strokeColor=none;fillColor=none;align=left;verticalAlign=middle;spacingLeft=4;spacingRight=4;overflow=hidden;points=[[0,0.5],[1,0.5]];portConstraint=eastwest;rotatable=0;whiteSpace=wrap;html=1;" vertex="1" parent="vCYi2XaUvvBDvqvVBY6Y-153">
          <mxGeometry y="30" width="180" height="50" as="geometry" />
        </mxCell>
        <mxCell id="vCYi2XaUvvBDvqvVBY6Y-155" style="edgeStyle=orthogonalEdgeStyle;rounded=0;orthogonalLoop=1;jettySize=auto;html=1;exitX=0.5;exitY=0;exitDx=0;exitDy=0;entryX=1;entryY=0.5;entryDx=0;entryDy=0;" edge="1" parent="1" target="vCYi2XaUvvBDvqvVBY6Y-154">
          <mxGeometry relative="1" as="geometry">
            <Array as="points">
              <mxPoint x="1663" y="265" />
            </Array>
            <mxPoint x="1663" y="360" as="sourcePoint" />
          </mxGeometry>
        </mxCell>
        <mxCell id="vCYi2XaUvvBDvqvVBY6Y-156" style="edgeStyle=orthogonalEdgeStyle;rounded=0;orthogonalLoop=1;jettySize=auto;html=1;exitX=0.5;exitY=1;exitDx=0;exitDy=0;entryX=1;entryY=0.5;entryDx=0;entryDy=0;" edge="1" parent="1" target="vCYi2XaUvvBDvqvVBY6Y-164">
          <mxGeometry relative="1" as="geometry">
            <Array as="points">
              <mxPoint x="1663" y="550" />
            </Array>
            <mxPoint x="1663" y="390" as="sourcePoint" />
          </mxGeometry>
        </mxCell>
        <mxCell id="vCYi2XaUvvBDvqvVBY6Y-157" value="TypeDoc" style="swimlane;fontStyle=0;childLayout=stackLayout;horizontal=1;startSize=30;horizontalStack=0;resizeParent=1;resizeParentMax=0;resizeLast=0;collapsible=1;marginBottom=0;whiteSpace=wrap;html=1;" vertex="1" parent="1">
          <mxGeometry x="1598" y="358" width="130" height="30" as="geometry" />
        </mxCell>
        <mxCell id="vCYi2XaUvvBDvqvVBY6Y-158" value="TypeProduct" style="swimlane;fontStyle=0;childLayout=stackLayout;horizontal=1;startSize=30;horizontalStack=0;resizeParent=1;resizeParentMax=0;resizeLast=0;collapsible=1;marginBottom=0;whiteSpace=wrap;html=1;" vertex="1" parent="1">
          <mxGeometry x="1448" y="360" width="140" height="30" as="geometry" />
        </mxCell>
        <mxCell id="vCYi2XaUvvBDvqvVBY6Y-159" style="edgeStyle=orthogonalEdgeStyle;rounded=0;orthogonalLoop=1;jettySize=auto;html=1;exitX=0.75;exitY=0;exitDx=0;exitDy=0;entryX=0.25;entryY=0;entryDx=0;entryDy=0;" edge="1" parent="1" source="vCYi2XaUvvBDvqvVBY6Y-160" target="vCYi2XaUvvBDvqvVBY6Y-153">
          <mxGeometry relative="1" as="geometry" />
        </mxCell>
        <mxCell id="vCYi2XaUvvBDvqvVBY6Y-160" value="Pruduct" style="swimlane;fontStyle=0;childLayout=stackLayout;horizontal=1;startSize=30;horizontalStack=0;resizeParent=1;resizeParentMax=0;resizeLast=0;collapsible=1;marginBottom=0;whiteSpace=wrap;html=1;" vertex="1" parent="1">
          <mxGeometry x="1078" y="220" width="180" height="80" as="geometry" />
        </mxCell>
        <mxCell id="vCYi2XaUvvBDvqvVBY6Y-161" value="- price: double&lt;div&gt;- stock: int&lt;/div&gt;&lt;div&gt;- typeProduct: TypeProduct&lt;/div&gt;" style="text;strokeColor=none;fillColor=none;align=left;verticalAlign=middle;spacingLeft=4;spacingRight=4;overflow=hidden;points=[[0,0.5],[1,0.5]];portConstraint=eastwest;rotatable=0;whiteSpace=wrap;html=1;" vertex="1" parent="vCYi2XaUvvBDvqvVBY6Y-160">
          <mxGeometry y="30" width="180" height="50" as="geometry" />
        </mxCell>
        <mxCell id="vCYi2XaUvvBDvqvVBY6Y-162" style="edgeStyle=orthogonalEdgeStyle;rounded=0;orthogonalLoop=1;jettySize=auto;html=1;exitX=0.75;exitY=0;exitDx=0;exitDy=0;entryX=0.016;entryY=1.092;entryDx=0;entryDy=0;entryPerimeter=0;" edge="1" parent="1" source="vCYi2XaUvvBDvqvVBY6Y-118" target="vCYi2XaUvvBDvqvVBY6Y-154">
          <mxGeometry relative="1" as="geometry" />
        </mxCell>
        <mxCell id="vCYi2XaUvvBDvqvVBY6Y-163" value="" style="endArrow=classic;html=1;rounded=0;" edge="1" parent="1">
          <mxGeometry width="50" height="50" relative="1" as="geometry">
            <mxPoint x="1518" y="360" as="sourcePoint" />
            <mxPoint x="1518" y="290" as="targetPoint" />
            <Array as="points">
              <mxPoint x="1518" y="320" />
            </Array>
          </mxGeometry>
        </mxCell>
        <mxCell id="vCYi2XaUvvBDvqvVBY6Y-164" value="" style="rhombus;whiteSpace=wrap;html=1;fillColor=#0E0E0E;" vertex="1" parent="1">
          <mxGeometry x="1396" y="540" width="20" height="20" as="geometry" />
        </mxCell>
        <mxCell id="vCYi2XaUvvBDvqvVBY6Y-165" value="" style="rhombus;whiteSpace=wrap;html=1;fillColor=#0E0E0E;" vertex="1" parent="1">
          <mxGeometry x="1398" y="630" width="20" height="20" as="geometry" />
        </mxCell>
        <mxCell id="vCYi2XaUvvBDvqvVBY6Y-166" value="" style="rhombus;whiteSpace=wrap;html=1;fillColor=#0E0E0E;" vertex="1" parent="1">
          <mxGeometry x="1148" y="420" width="20" height="20" as="geometry" />
        </mxCell>
        <mxCell id="vCYi2XaUvvBDvqvVBY6Y-168" style="edgeStyle=orthogonalEdgeStyle;rounded=0;orthogonalLoop=1;jettySize=auto;html=1;exitX=1;exitY=1;exitDx=0;exitDy=0;entryX=0;entryY=1;entryDx=0;entryDy=0;" edge="1" parent="1" source="vCYi2XaUvvBDvqvVBY6Y-151" target="vCYi2XaUvvBDvqvVBY6Y-151">
          <mxGeometry relative="1" as="geometry" />
        </mxCell>
        <mxCell id="vCYi2XaUvvBDvqvVBY6Y-169" style="edgeStyle=orthogonalEdgeStyle;rounded=0;orthogonalLoop=1;jettySize=auto;html=1;exitX=1;exitY=1;exitDx=0;exitDy=0;entryX=1;entryY=0;entryDx=0;entryDy=0;" edge="1" parent="1" source="vCYi2XaUvvBDvqvVBY6Y-164" target="vCYi2XaUvvBDvqvVBY6Y-164">
          <mxGeometry relative="1" as="geometry" />
        </mxCell>
        <mxCell id="vCYi2XaUvvBDvqvVBY6Y-170" value="" style="edgeStyle=entityRelationEdgeStyle;fontSize=12;html=1;endArrow=ERmany;rounded=0;entryX=0.029;entryY=0.118;entryDx=0;entryDy=0;entryPerimeter=0;" edge="1" parent="1">
          <mxGeometry width="100" height="100" relative="1" as="geometry">
            <mxPoint x="958" y="240" as="sourcePoint" />
            <mxPoint x="1078" y="240.06000000000006" as="targetPoint" />
            <Array as="points">
              <mxPoint x="888" y="350" />
              <mxPoint x="1018" y="270" />
              <mxPoint x="830.07" y="250" />
              <mxPoint x="840.07" y="260" />
              <mxPoint x="873.07" y="240" />
              <mxPoint x="860.07" y="240" />
              <mxPoint x="880.07" y="260" />
            </Array>
          </mxGeometry>
        </mxCell>
        <mxCell id="vCYi2XaUvvBDvqvVBY6Y-171" value="" style="endArrow=none;html=1;rounded=0;" edge="1" parent="1">
          <mxGeometry width="50" height="50" relative="1" as="geometry">
            <mxPoint x="958" y="550" as="sourcePoint" />
            <mxPoint x="958" y="240" as="targetPoint" />
          </mxGeometry>
        </mxCell>
        <mxCell id="vCYi2XaUvvBDvqvVBY6Y-172" value="" style="endArrow=none;html=1;rounded=0;" edge="1" parent="1">
          <mxGeometry width="50" height="50" relative="1" as="geometry">
            <mxPoint x="958" y="549.41" as="sourcePoint" />
            <mxPoint x="988" y="549" as="targetPoint" />
            <Array as="points">
              <mxPoint x="978" y="549.41" />
            </Array>
          </mxGeometry>
        </mxCell>
        <mxCell id="vCYi2XaUvvBDvqvVBY6Y-173" value="SaleService" style="swimlane;fontStyle=0;childLayout=stackLayout;horizontal=1;startSize=30;horizontalStack=0;resizeParent=1;resizeParentMax=0;resizeLast=0;collapsible=1;marginBottom=0;whiteSpace=wrap;html=1;" vertex="1" parent="1">
          <mxGeometry x="257" y="778" width="230" height="60" as="geometry">
            <mxRectangle x="635" y="250" width="90" height="30" as="alternateBounds" />
          </mxGeometry>
        </mxCell>
        <mxCell id="vCYi2XaUvvBDvqvVBY6Y-174" value="- sales: List" style="text;strokeColor=none;fillColor=none;align=left;verticalAlign=middle;spacingLeft=4;spacingRight=4;overflow=hidden;points=[[0,0.5],[1,0.5]];portConstraint=eastwest;rotatable=0;whiteSpace=wrap;html=1;" vertex="1" parent="vCYi2XaUvvBDvqvVBY6Y-173">
          <mxGeometry y="30" width="230" height="30" as="geometry" />
        </mxCell>
        <mxCell id="vCYi2XaUvvBDvqvVBY6Y-175" value="" style="endArrow=none;html=1;rounded=0;exitX=0.963;exitY=0;exitDx=0;exitDy=0;exitPerimeter=0;entryX=0.015;entryY=0;entryDx=0;entryDy=0;entryPerimeter=0;" edge="1" parent="vCYi2XaUvvBDvqvVBY6Y-173">
          <mxGeometry width="50" height="50" relative="1" as="geometry">
            <mxPoint x="221.49" y="60" as="sourcePoint" />
            <mxPoint x="3.449999999999818" y="60" as="targetPoint" />
          </mxGeometry>
        </mxCell>
        <mxCell id="vCYi2XaUvvBDvqvVBY6Y-176" value="SellerService" style="swimlane;fontStyle=0;childLayout=stackLayout;horizontal=1;startSize=30;horizontalStack=0;resizeParent=1;resizeParentMax=0;resizeLast=0;collapsible=1;marginBottom=0;whiteSpace=wrap;html=1;" vertex="1" parent="1">
          <mxGeometry x="257" y="648" width="230" height="60" as="geometry">
            <mxRectangle x="635" y="250" width="90" height="30" as="alternateBounds" />
          </mxGeometry>
        </mxCell>
        <mxCell id="vCYi2XaUvvBDvqvVBY6Y-177" value="- sellers: List" style="text;strokeColor=none;fillColor=none;align=left;verticalAlign=middle;spacingLeft=4;spacingRight=4;overflow=hidden;points=[[0,0.5],[1,0.5]];portConstraint=eastwest;rotatable=0;whiteSpace=wrap;html=1;" vertex="1" parent="vCYi2XaUvvBDvqvVBY6Y-176">
          <mxGeometry y="30" width="230" height="30" as="geometry" />
        </mxCell>
        <mxCell id="vCYi2XaUvvBDvqvVBY6Y-178" value="" style="endArrow=none;html=1;rounded=0;exitX=0.963;exitY=0;exitDx=0;exitDy=0;exitPerimeter=0;entryX=0.015;entryY=0;entryDx=0;entryDy=0;entryPerimeter=0;" edge="1" parent="vCYi2XaUvvBDvqvVBY6Y-176">
          <mxGeometry width="50" height="50" relative="1" as="geometry">
            <mxPoint x="221.49000000000024" y="60" as="sourcePoint" />
            <mxPoint x="3.449999999999818" y="60" as="targetPoint" />
          </mxGeometry>
        </mxCell>
        <mxCell id="vCYi2XaUvvBDvqvVBY6Y-179" value="StoreService" style="swimlane;fontStyle=0;childLayout=stackLayout;horizontal=1;startSize=30;horizontalStack=0;resizeParent=1;resizeParentMax=0;resizeLast=0;collapsible=1;marginBottom=0;whiteSpace=wrap;html=1;" vertex="1" parent="1">
          <mxGeometry x="257" y="503" width="230" height="60" as="geometry">
            <mxRectangle x="635" y="250" width="90" height="30" as="alternateBounds" />
          </mxGeometry>
        </mxCell>
        <mxCell id="vCYi2XaUvvBDvqvVBY6Y-180" value="- stores: List" style="text;strokeColor=none;fillColor=none;align=left;verticalAlign=middle;spacingLeft=4;spacingRight=4;overflow=hidden;points=[[0,0.5],[1,0.5]];portConstraint=eastwest;rotatable=0;whiteSpace=wrap;html=1;" vertex="1" parent="vCYi2XaUvvBDvqvVBY6Y-179">
          <mxGeometry y="30" width="230" height="30" as="geometry" />
        </mxCell>
        <mxCell id="vCYi2XaUvvBDvqvVBY6Y-181" value="" style="endArrow=none;html=1;rounded=0;exitX=0.963;exitY=0;exitDx=0;exitDy=0;exitPerimeter=0;entryX=0.015;entryY=0;entryDx=0;entryDy=0;entryPerimeter=0;" edge="1" parent="vCYi2XaUvvBDvqvVBY6Y-179">
          <mxGeometry width="50" height="50" relative="1" as="geometry">
            <mxPoint x="221.48999999999978" y="60" as="sourcePoint" />
            <mxPoint x="3.449999999999818" y="60" as="targetPoint" />
          </mxGeometry>
        </mxCell>
        <mxCell id="vCYi2XaUvvBDvqvVBY6Y-182" value="ParameterService" style="swimlane;fontStyle=0;childLayout=stackLayout;horizontal=1;startSize=30;horizontalStack=0;resizeParent=1;resizeParentMax=0;resizeLast=0;collapsible=1;marginBottom=0;whiteSpace=wrap;html=1;" vertex="1" parent="1">
          <mxGeometry x="578" y="500" width="230" height="170" as="geometry">
            <mxRectangle x="635" y="250" width="90" height="30" as="alternateBounds" />
          </mxGeometry>
        </mxCell>
        <mxCell id="vCYi2XaUvvBDvqvVBY6Y-183" value="- typeDocs: List&lt;div&gt;- products: List&lt;/div&gt;&lt;div&gt;- typeProducts: List&lt;/div&gt;" style="text;strokeColor=none;fillColor=none;align=left;verticalAlign=middle;spacingLeft=4;spacingRight=4;overflow=hidden;points=[[0,0.5],[1,0.5]];portConstraint=eastwest;rotatable=0;whiteSpace=wrap;html=1;" vertex="1" parent="vCYi2XaUvvBDvqvVBY6Y-182">
          <mxGeometry y="30" width="230" height="50" as="geometry" />
        </mxCell>
        <mxCell id="vCYi2XaUvvBDvqvVBY6Y-184" value="" style="endArrow=none;html=1;rounded=0;exitX=0.963;exitY=0;exitDx=0;exitDy=0;exitPerimeter=0;entryX=0.015;entryY=0;entryDx=0;entryDy=0;entryPerimeter=0;" edge="1" parent="vCYi2XaUvvBDvqvVBY6Y-182" source="vCYi2XaUvvBDvqvVBY6Y-185" target="vCYi2XaUvvBDvqvVBY6Y-185">
          <mxGeometry width="50" height="50" relative="1" as="geometry">
            <mxPoint x="90" y="60" as="sourcePoint" />
            <mxPoint x="10" y="60" as="targetPoint" />
          </mxGeometry>
        </mxCell>
        <mxCell id="vCYi2XaUvvBDvqvVBY6Y-185" value="- addParameter() :&lt;div&gt;&lt;br&gt;&lt;div&gt;getAllParameters() : List&lt;/div&gt;&lt;div&gt;getParametersByType() : List&lt;/div&gt;&lt;div&gt;getParameterByCode(code:String)&amp;nbsp;&lt;br&gt;&lt;/div&gt;&lt;/div&gt;" style="text;strokeColor=none;fillColor=none;align=left;verticalAlign=middle;spacingLeft=4;spacingRight=4;overflow=hidden;points=[[0,0.5],[1,0.5]];portConstraint=eastwest;rotatable=0;whiteSpace=wrap;html=1;" vertex="1" parent="vCYi2XaUvvBDvqvVBY6Y-182">
          <mxGeometry y="80" width="230" height="90" as="geometry" />
        </mxCell>
        <mxCell id="vCYi2XaUvvBDvqvVBY6Y-186" value="" style="edgeStyle=entityRelationEdgeStyle;fontSize=12;html=1;endArrow=ERmany;rounded=0;entryX=1.007;entryY=0.137;entryDx=0;entryDy=0;entryPerimeter=0;exitX=-0.022;exitY=0.127;exitDx=0;exitDy=0;exitPerimeter=0;" edge="1" parent="1" source="vCYi2XaUvvBDvqvVBY6Y-129" target="vCYi2XaUvvBDvqvVBY6Y-123">
          <mxGeometry width="100" height="100" relative="1" as="geometry">
            <mxPoint x="1178" y="510" as="sourcePoint" />
            <mxPoint x="1736" y="660.0600000000001" as="targetPoint" />
            <Array as="points">
              <mxPoint x="1208" y="546" />
              <mxPoint x="1488.0700000000002" y="670" />
              <mxPoint x="1498.0700000000002" y="680" />
              <mxPoint x="1531.0700000000002" y="660" />
              <mxPoint x="1518.0700000000002" y="660" />
              <mxPoint x="1538.0700000000002" y="680" />
            </Array>
          </mxGeometry>
        </mxCell>
        <mxCell id="vCYi2XaUvvBDvqvVBY6Y-187" value="&lt;font style=&quot;font-size: 10px;&quot;&gt;n&lt;/font&gt;" style="text;html=1;align=center;verticalAlign=middle;resizable=0;points=[];autosize=1;strokeColor=none;fillColor=none;" vertex="1" parent="1">
          <mxGeometry x="1168" y="520" width="30" height="30" as="geometry" />
        </mxCell>
        <mxCell id="vCYi2XaUvvBDvqvVBY6Y-188" value="&lt;font style=&quot;font-size: 10px;&quot;&gt;l&lt;/font&gt;" style="text;html=1;align=center;verticalAlign=middle;resizable=0;points=[];autosize=1;strokeColor=none;fillColor=none;" vertex="1" parent="1">
          <mxGeometry x="1196" y="520" width="30" height="30" as="geometry" />
        </mxCell>
        <mxCell id="vCYi2XaUvvBDvqvVBY6Y-189" value="" style="edgeStyle=entityRelationEdgeStyle;fontSize=12;html=1;endArrow=ERmany;rounded=0;" edge="1" parent="1">
          <mxGeometry width="100" height="100" relative="1" as="geometry">
            <mxPoint x="928" y="570" as="sourcePoint" />
            <mxPoint x="983" y="570" as="targetPoint" />
            <Array as="points">
              <mxPoint x="1193" y="740" />
              <mxPoint x="1163" y="470" />
              <mxPoint x="1223" y="710" />
              <mxPoint x="948" y="530" />
              <mxPoint x="918" y="530" />
              <mxPoint x="1103" y="500" />
            </Array>
          </mxGeometry>
        </mxCell>
        <mxCell id="vCYi2XaUvvBDvqvVBY6Y-190" value="" style="endArrow=none;html=1;rounded=0;" edge="1" parent="1">
          <mxGeometry width="50" height="50" relative="1" as="geometry">
            <mxPoint x="928" y="570" as="sourcePoint" />
            <mxPoint x="928" y="380" as="targetPoint" />
          </mxGeometry>
        </mxCell>
        <mxCell id="vCYi2XaUvvBDvqvVBY6Y-191" value="" style="endArrow=none;html=1;rounded=0;entryX=0;entryY=0.25;entryDx=0;entryDy=0;" edge="1" parent="1" target="vCYi2XaUvvBDvqvVBY6Y-135">
          <mxGeometry width="50" height="50" relative="1" as="geometry">
            <mxPoint x="928" y="385" as="sourcePoint" />
            <mxPoint x="1194.75" y="420" as="targetPoint" />
            <Array as="points">
              <mxPoint x="948" y="385" />
            </Array>
          </mxGeometry>
        </mxCell>
        <mxCell id="vCYi2XaUvvBDvqvVBY6Y-192" value="&lt;font style=&quot;font-size: 10px;&quot;&gt;n&lt;/font&gt;" style="text;html=1;align=center;verticalAlign=middle;resizable=0;points=[];autosize=1;strokeColor=none;fillColor=none;" vertex="1" parent="1">
          <mxGeometry x="948" y="545" width="30" height="30" as="geometry" />
        </mxCell>
        <mxCell id="vCYi2XaUvvBDvqvVBY6Y-193" value="&lt;font style=&quot;font-size: 10px;&quot;&gt;l&lt;/font&gt;" style="text;html=1;align=center;verticalAlign=middle;resizable=0;points=[];autosize=1;strokeColor=none;fillColor=none;" vertex="1" parent="1">
          <mxGeometry x="958" y="360" width="30" height="30" as="geometry" />
        </mxCell>
        <mxCell id="vCYi2XaUvvBDvqvVBY6Y-194" value="" style="endArrow=none;html=1;rounded=0;" edge="1" parent="1">
          <mxGeometry relative="1" as="geometry">
            <mxPoint x="542" y="277.17" as="sourcePoint" />
            <mxPoint x="728" y="277" as="targetPoint" />
          </mxGeometry>
        </mxCell>
        <mxCell id="vCYi2XaUvvBDvqvVBY6Y-195" value="" style="endArrow=none;html=1;rounded=0;" edge="1" parent="1">
          <mxGeometry relative="1" as="geometry">
            <mxPoint x="728" y="278" as="sourcePoint" />
            <mxPoint x="728" y="338" as="targetPoint" />
          </mxGeometry>
        </mxCell>
        <mxCell id="vCYi2XaUvvBDvqvVBY6Y-196" style="edgeStyle=orthogonalEdgeStyle;rounded=0;orthogonalLoop=1;jettySize=auto;html=1;exitX=0.5;exitY=0;exitDx=0;exitDy=0;entryX=1.013;entryY=-0.1;entryDx=0;entryDy=0;entryPerimeter=0;" edge="1" parent="1" source="vCYi2XaUvvBDvqvVBY6Y-153" target="vCYi2XaUvvBDvqvVBY6Y-183">
          <mxGeometry relative="1" as="geometry">
            <Array as="points">
              <mxPoint x="1558" y="168" />
              <mxPoint x="1748" y="168" />
              <mxPoint x="1748" y="708" />
              <mxPoint x="898" y="708" />
              <mxPoint x="898" y="525" />
            </Array>
          </mxGeometry>
        </mxCell>
        <mxCell id="vCYi2XaUvvBDvqvVBY6Y-197" style="edgeStyle=orthogonalEdgeStyle;rounded=0;orthogonalLoop=1;jettySize=auto;html=1;entryX=-0.014;entryY=0.057;entryDx=0;entryDy=0;entryPerimeter=0;" edge="1" parent="1" source="vCYi2XaUvvBDvqvVBY6Y-151" target="vCYi2XaUvvBDvqvVBY6Y-146">
          <mxGeometry relative="1" as="geometry" />
        </mxCell>
      </root>
    </mxGraphModel>
  </diagram>
</mxfile>
